<svg width="19" height="9" viewBox="0 0 19 9" fill="none" xmlns="http://www.w3.org/2000/svg">
<path d="M0 0.642857C0 0.287817 0.287817 0 0.642857 0H18.3571C18.7122 0 19 0.287817 19 0.642857C19 0.997897 18.7122 1.28571 18.3571 1.28571H0.642857C0.287817 1.28571 0 0.997897 0 0.642857Z" fill="#E9E9E9"/>
<path d="M3 4.50003C3 4.14499 3.28782 3.85718 3.64286 3.85718H15.2143C15.5693 3.85718 15.8571 4.14499 15.8571 4.50003C15.8571 4.85507 15.5693 5.14289 15.2143 5.14289H3.64286C3.28782 5.14289 3 4.85507 3 4.50003Z" fill="#E9E9E9"/>
<path d="M7 8.35721C7 8.00217 7.28782 7.71436 7.64286 7.71436H11.5C11.855 7.71436 12.1429 8.00217 12.1429 8.35721C12.1429 8.71225 11.855 9.00007 11.5 9.00007H7.64286C7.28782 9.00007 7 8.71225 7 8.35721Z" fill="#E9E9E9"/>
</svg>
